# xmcd
#
# Track frame offsets: 
#        150
#        11003
#        22798
#        35671
#        44304
#        57342
#        73962
#        90619
#        101725
#        112569
#        124380
#        139831
#        156432
#        168428
#        192187
#        242421
#        253535
#        275054
#        285895
#        297439
#        307967
#
# Disc length: 4239 seconds
#
# Revision: 1
# Processed by: cddbd v1.5.2PL0 Copyright (c) Steve Scherf et al.
# Submitted via: ExactAudioCopy v0.99pb4
#
DISCID=29108d15
DTITLE=Mance Lipscomb - Live!  At The Cabale
DYEAR=1999
DGENRE=Blues
TTITLE0=Baby, Don't You Lay It on Me
TTITLE1=Meet Me in the Bottom
TTITLE2=You Gonna Miss Me
TTITLE3=Keep on Truckin'
TTITLE4=Trobule in Mind
TTITLE5=Tom Moore Blues
TTITLE6=Mance's Short-haired Woman
TTITLE7=Tra-La-Ra-La Doodle All Day
TTITLE8=Shine on Harvest Moon
TTITLE9=Run, Sinner, Run
TTITLE10=Key to the Highway
TTITLE11=Rock Me, Mama
TTITLE12=Wonder Where My Easy Rider Done Gone
TTITLE13=Late Night Blues and Boogie Woogie
TTITLE14=Early Days Back Home
TTITLE15=Cocaine Done Killed My Baby
TTITLE16=I Wonder Why
TTITLE17=It Ain't Gonna Rain No More
TTITLE18=You Gonna Quit Me, Baby
TTITLE19=When the Saints Go Marching In
TTITLE20=Mother Had a Sick Child
EXTD=YEAR: 1999
EXTT0=
EXTT1=
EXTT2=
EXTT3=
EXTT4=
EXTT5=
EXTT6=
EXTT7=
EXTT8=
EXTT9=
EXTT10=
EXTT11=
EXTT12=
EXTT13=
EXTT14=
EXTT15=
EXTT16=
EXTT17=
EXTT18=
EXTT19=
EXTT20=
PLAYORDER=
